# xmcd
#
# Track frame offsets: 
#        150
#        11892
#        26395
#        38150
#        52462
#        63845
#        74977
#        90177
#        101697
#        118122
#
# Disc length: 1760 seconds
#
# Revision: 0
# Processed by: cddbd v1.4PL0 Copyright (c) Steve Scherf et al.
# Submitted via: ExactAudioCopy v0.90a11
#
DISCID=8b06de0a
DTITLE=Roland Lorenz - Roland Lorenz goes West
DYEAR=1900
DGENRE=
TTITLE0=Folsom Prison Blues
TTITLE1=I've got a name
TTITLE2=Ghost riders in the sky
TTITLE3=Wagon wheels
TTITLE4=I have to say I love you in a song
TTITLE5=King of the road
TTITLE6=Forty hour week
TTITLE7=Six days on the road
TTITLE8=Always on my mind
TTITLE9=Lonesome me
EXTD=
EXTT0=
EXTT1=
EXTT2=
EXTT3=
EXTT4=
EXTT5=
EXTT6=
EXTT7=
EXTT8=
EXTT9=
PLAYORDER=
